<?xml version="1.0" encoding="UTF-8" standalone="no"?><!DOCTYPE svg PUBLIC "-//W3C//DTD SVG 1.1//EN" "http://www.w3.org/Graphics/SVG/1.1/DTD/svg11.dtd"><svg width="100%" height="100%" viewBox="0 0 804 692" version="1.1" xmlns="http://www.w3.org/2000/svg" xmlns:xlink="http://www.w3.org/1999/xlink" xml:space="preserve" xmlns:serif="http://www.serif.com/" style="fill-rule:evenodd;clip-rule:evenodd;stroke-linejoin:round;stroke-miterlimit:2;"><path d="M209.473,0.475c9.368,-0.428 22.954,-0.014 32.658,-0.01l105.464,-0.027c12.278,-0.073 33.364,-4.154 33.904,14.145c0.392,13.258 -0.1,26.566 0.148,39.702c0.646,34.204 -7.026,25.988 -34.26,27.696c-0.318,5.524 -0.058,13.14 0,18.814c33.356,5.634 68.55,22.266 97.474,39.256c7.774,-8.062 16.606,-15.444 24.168,-23.828c13.628,-15.108 25.844,5.868 37.456,17.218l22.506,22.154c3.56,3.524 17.058,15.73 16.058,19.638c-1.892,7.39 -21.67,25.828 -27.2,30.394c118.784,154.76 61.758,363.104 -112.17,444.464c-92,38.578 -190.916,29.874 -275.07,-24.592c-131.934,-85.386 -170.62,-265.506 -85.08,-397.426c43.974,-67.818 108.648,-109.658 187.316,-127.278c-0.108,-6.162 -0.004,-12.628 0,-18.814c-8.328,-0.24 -32.984,2.888 -33.95,-10.528c-1.392,-19.318 -0.494,-39.597 -0.162,-58.979c0.12,-6.975 4.558,-10.295 10.74,-11.999Zm87.378,645.278c144.434,-3.83 258.424,-124.006 254.626,-268.44c-3.8,-144.436 -123.952,-258.452 -268.386,-254.684c-144.48,3.77 -258.538,123.966 -254.738,268.444c3.8,144.478 124.02,258.512 268.498,254.68Zm182.486,-499.428c-3.924,4.044 -7.21,7.322 -11.398,11.122c12.516,9.2 20.308,16.006 31.322,26.816c1.746,-0.204 8.38,-7.13 10.088,-8.834c-4.852,-4.802 -26.552,-26.982 -30.012,-29.104Zm-218.828,-64.344c-0.002,4.664 -0.054,9.414 0,14.07c21.546,-3.086 38.076,-1.358 59.086,0c0.108,-4.746 0.058,-9.332 0,-14.07l-39.184,0.034c-6.14,0.004 -13.91,0.266 -19.902,-0.034Zm-34.54,-53.563l0,25.109l82.652,0.01c13.676,0.006 31.988,0.568 45.266,-0.01c0.484,-2.754 0.028,-21.13 0,-25.109l-84.782,-0.013c-13.892,-0.002 -29.334,-0.339 -43.136,0.013Z" style="fill-rule:nonzero;"/><path d="M272.969,161.216c123.398,-9.426 231.06,83.002 240.422,206.406c9.362,123.404 -83.122,231.018 -206.53,240.318c-123.32,9.292 -230.839,-83.11 -240.195,-206.426c-9.355,-123.314 82.993,-230.88 206.303,-240.298Zm-178.982,206.768c47.66,-0.564 26.886,26.992 16.468,27.578c-5.65,0.318 -11.108,-0.17 -16.468,0.152c3.288,90.846 90.366,184.636 182.146,183.808c0.076,-10.666 -2.1,-29.616 13.322,-29.182c16.276,0.458 13.876,18.768 13.14,29.182c2.174,0.028 6.102,0.182 8.116,0c98.084,-15.098 166.858,-82.25 175.792,-183.808c-10.994,0.966 -28.222,3.302 -28.786,-12.264c-0.656,-18.098 17.148,-14.704 28.786,-15.466c-5.284,-93.816 -90.516,-173.954 -183.908,-178.142c0.016,7.638 1.688,20.248 -3.628,25.96c-5.188,5.574 -15.35,5.13 -20.29,-0.606c-5.528,-6.346 -3.114,-17.372 -3.572,-25.354c-1.734,-0.012 -4.028,-0.1 -5.708,0c-42.588,7.54 -71.516,17.35 -105.68,44.9c-43.664,35.212 -63.532,79.006 -69.73,133.242Z" style="fill-rule:nonzero;"/><path d="M191.187,267.114c9.95,-1.456 18.206,9.858 24.802,16.442l35.634,35.606c4.298,4.278 17.518,17.512 22.094,20.49c37.68,-11.332 70.732,21.006 55.092,56.062c6.526,7.628 13.59,14.346 20.606,21.508l39.46,39.818c8.78,8.802 44.806,39.432 10.05,44.264c-4.542,0.1 -8.708,-2.92 -11.75,-5.968c-14.478,-14.504 -74.842,-74.038 -76.464,-77.74c-42.306,12.62 -72.256,-13.866 -59.142,-58.714c-22.172,-24.04 -47.828,-45.77 -69.858,-69.99c-7.368,-8.102 -1.27,-19.928 9.476,-21.778Zm101.94,126.22c7.894,-1.8 12.846,-9.646 11.074,-17.546c-1.77,-7.9 -9.598,-12.88 -17.506,-11.138c-7.946,1.752 -12.958,9.628 -11.176,17.57c1.78,7.94 9.674,12.922 17.608,11.114Z" style="fill-rule:nonzero;"/><path d="M723.437,53.526c37.266,-0.442 71.54,23.198 79,60.766c2.194,11.054 1.182,25.728 1.172,37.156l0.074,406.09c0.196,21.054 -0.588,23.198 -9.976,42.284c-8.336,16.95 -16.6,33.752 -25.326,50.504c-8.998,17.27 -14.122,37.904 -36.166,41.594c-30.328,1.46 -38.086,-32.726 -49.86,-55.9l-17.83,-34.836c-15.21,-29.68 -11.382,-27.61 -11.372,-61.424l0.048,-375.406c-0.062,-13.376 -0.622,-28.332 0.276,-41.374c2.93,-42.594 32.512,-61.916 69.96,-69.454Zm-8.34,507.212l-0.244,-313.03c0.1,-11.986 28.632,-32.066 28.192,17.872l0,295.158c9.252,0.802 23.602,-0.056 33.552,0c-0.374,-23.588 0.004,-48.232 0,-71.888l-0.022,-237.662c-0.034,-14.534 -0.618,-35.206 0.022,-49.434l-61.238,-0.026c-9.69,-0.008 -22.14,-0.424 -31.538,0.026l-1.608,0.43c-1.708,3.484 -0.998,39.432 -0.996,45.664l-0.012,312.89c8.298,-0.024 26.296,-0.634 33.892,0Zm-21.474,27.748l-2.492,0.326l-0.398,0.628c5.314,14.034 28.732,62.508 38.244,75.482c3.642,-5.62 10.298,-20.666 14.068,-23.648c3.66,-13.536 19.458,-37.952 25.906,-52.788l-75.328,0Zm27.568,-506.506c-35.07,4.646 -40.04,33.81 -40.014,62.964l0.028,28.586l57.014,0c11.972,0.024 26.588,0.466 38.378,0l0.03,-27.988c-0.006,-19.524 0.182,-35.94 -14.534,-50.752c-9.68,-9.744 -27.374,-16.24 -40.902,-12.81Z" style="fill-rule:nonzero;"/></svg>